<svg xmlns="http://www.w3.org/2000/svg" viewBox="0 0 64 64"><path d="M10.7 37H8c-2.8 0-5-2.2-5-5s2.2-5 5-5h18c.6 0 1-.4 1-1s-.4-1-1-1H8c-3.9 0-7 3.1-7 7s3.1 7 7 7h2.7c.6 0 1-.4 1-1s-.4-1-1-1zm6.9 0h-2.1c-.6 0-1 .4-1 1s.4 1 1 1h2.1c.6 0 1-.4 1-1s-.5-1-1-1zM38 53.7c-.6 0-1 .4-1 1V56c0 2.8-2.2 5-5 5s-5-2.2-5-5V38c0-.6-.4-1-1-1h-4.3c-.6 0-1 .4-1 1s.4 1 1 1H25v17c0 3.9 3.1 7 7 7s7-3.1 7-7v-1.3c0-.6-.4-1-1-1z"/><path d="M56 25H39V8c0-3.9-3.1-7-7-7s-7 3.1-7 7v14.1c0 .6.4 1 1 1s1-.4 1-1V8c0-2.8 2.2-5 5-5s5 2.2 5 5v18c0 .6.4 1 1 1h18c2.8 0 5 2.2 5 5s-2.2 5-5 5H38c-.6 0-1 .4-1 1v11.6c0 .6.4 1 1 1s1-.4 1-1V39h17c3.9 0 7-3.1 7-7s-3.1-7-7-7z"/><path d="M46 35c.6 0 1-.4 1-1s-.4-1-1-1h-2c-.6 0-1 .4-1 1s.4 1 1 1h2zm9.3 0c2.1 0 3.8-1.7 3.8-3.8 0-.6-.4-1-1-1s-1 .4-1 1c0 1-.8 1.8-1.8 1.8H50c-.6 0-1 .4-1 1s.4 1 1 1h5.3z"/></svg>